<?xml version="1.0" encoding="UTF-8"?>
<svg width="38px" height="35px" viewBox="0 0 38 35" version="1.1" xmlns="http://www.w3.org/2000/svg" xmlns:xlink="http://www.w3.org/1999/xlink">
    <!-- Generator: Sketch 52.1 (67048) - http://www.bohemiancoding.com/sketch -->
    <title>书籍</title>
    <desc>Created with Sketch.</desc>
    <defs>
        <linearGradient x1="50%" y1="0%" x2="50%" y2="100%" id="linearGradient-1">
            <stop stop-color="#EA5454" offset="0%"></stop>
            <stop stop-color="#F76B1C" offset="100%"></stop>
        </linearGradient>
    </defs>
    <g id="Page-1" stroke="none" stroke-width="1" fill="none" fill-rule="evenodd">
        <g id="首页" transform="translate(-301.000000, -235.000000)" fill="url(#linearGradient-1)" fill-rule="nonzero">
            <g id="书籍" transform="translate(301.000000, 235.000000)">
                <path d="M27.545502,5.05490908e-06 C23.2727626,5.05490908e-06 20.4545953,1.18182284 19.0000233,2.27273426 C17.5454747,1.09091648 14.7272839,5.05490908e-06 10.4545446,5.05490908e-06 C2.63637142,5.05490908e-06 0.727267635,1.00000622 0.727267635,2.36364452 L0.727267635,29.8182077 C0.727267635,31.6363934 1.27272139,32.6363946 2.99999684,32.6363946 L9.81816884,32.6363946 C13.5454466,32.6363946 17.2727088,34.0909432 18.6363432,34.2727598 L19.3636174,34.2727598 C20.818166,34.0000321 24.4545218,32.6363946 28.1817918,32.6363946 L34.9999638,32.6363946 C36.7272392,32.6363946 37.272693,31.6363934 37.272693,29.8182077 L37.272693,2.36364452 C37.272693,1.00000622 35.3636009,5.05490908e-06 27.545416,5.05490908e-06 L27.545502,5.05490908e-06 Z M17.818225,29.1818749 C17.818225,30.8182401 17.7273159,31.4546042 17.2727713,31.4546042 C16.2727701,31.4546042 13.9091306,30.2727864 9.81823134,30.2727864 L4.09095905,30.2727864 C3.18186815,30.2727864 2.90914127,30.0909682 2.90914127,29.0909686 L2.90914127,3.45457157 C2.90914127,2.54548067 5.90914476,2.27275379 10.3636812,2.27275379 C15.2727885,2.27275379 17.8182211,4.0909395 17.8182211,5.09094067 L17.8182211,29.1818671 L17.818225,29.1818749 Z M35.000081,29.1818749 C35.000081,30.1818761 34.8182628,30.3636927 33.8182632,30.3636927 L28.0909909,30.3636927 C24.0000877,30.3636927 21.6364521,31.5455105 20.636451,31.5455105 C20.0909972,31.5455105 20.0909972,30.9091465 20.0909972,29.2727813 L20.0909972,5.18185483 C20.0909972,4.18185367 22.6364533,2.36366796 27.5455371,2.36366796 C31.909175,2.36366796 35.000077,2.63639562 35.000077,3.54548574 L35.000077,29.1818828 L35.000081,29.1818749 Z" id="形状"></path>
            </g>
        </g>
    </g>
</svg>