<?xml version="1.0" encoding="UTF-8"?>
<svg width="16px" height="16px" viewBox="0 0 16 16" version="1.1" xmlns="http://www.w3.org/2000/svg" xmlns:xlink="http://www.w3.org/1999/xlink">
    <!-- Generator: Sketch 52.1 (67048) - http://www.bohemiancoding.com/sketch -->
    <title>system-delete</title>
    <desc>Created with Sketch.</desc>
    <g id="Page-1" stroke="none" stroke-width="1" fill="none" fill-rule="evenodd">
        <g id="书架-copy" transform="translate(-136.000000, -637.000000)" fill="#EA5454" fill-rule="nonzero">
            <g id="分组" transform="translate(136.000000, 633.000000)">
                <g id="system-delete" transform="translate(0.000000, 4.000000)">
                    <path d="M13.3166774,3.95965398 L13.3166774,15.3218938 L2.68334312,15.3218938 L2.68334312,3.95965398 L0.30000128,3.95965398 L0.30000128,2.86008238 L15.7000192,2.86008238 L15.7000192,3.95965398 L13.3166774,3.95965398 Z M3.7833444,3.95965398 L3.7833444,14.2223222 L12.2166761,14.2223222 L12.2166761,3.95965398 L3.7833444,3.95965398 Z M5.80000768,5.7922733 L6.90000896,5.7922733 L6.90000896,12.3897028 L5.80000768,12.3897028 L5.80000768,5.7922733 Z M9.10001152,5.7922733 L10.2000128,5.7922733 L10.2000128,12.3897028 L9.10001152,12.3897028 L9.10001152,5.7922733 Z M5.06666776,0.6609392 L10.9333527,0.6609392 L10.9333527,1.76051079 L5.06666776,1.76051079 L5.06666776,0.6609392 Z" id="形状"></path>
                </g>
            </g>
        </g>
    </g>
</svg>