<?xml version="1.0" encoding="UTF-8"?>
<svg width="151px" height="120px" viewBox="0 0 151 120" version="1.1" xmlns="http://www.w3.org/2000/svg" xmlns:xlink="http://www.w3.org/1999/xlink">
    <!-- Generator: Sketch 52.1 (67048) - http://www.bohemiancoding.com/sketch -->
    <title>分组 3</title>
    <desc>Created with Sketch.</desc>
    <g id="Page-1" stroke="none" stroke-width="1" fill="none" fill-rule="evenodd">
        <g id="书架-copy-3" transform="translate(-112.000000, -128.000000)">
            <g id="分组-3" transform="translate(112.000000, 128.000000)">
                <g id="分组" transform="translate(31.000000, 18.000000)" stroke="#979797" stroke-width="3">
                    <path d="M3,1.5 C2.09663489,1.5 1.5,1.95516476 1.5,2.28865979 L1.5,71.7113402 C1.5,72.0448352 2.09663489,72.5 3,72.5 L44,72.5 C44.9033651,72.5 45.5,72.0448352 45.5,71.7113402 L45.5,2.28865979 C45.5,1.95516476 44.9033651,1.5 44,1.5 L3,1.5 Z" id="矩形"></path>
                    <path d="M47,1.5 C46.0966349,1.5 45.5,1.95516476 45.5,2.28865979 L45.5,71.7113402 C45.5,72.0448352 46.0966349,72.5 47,72.5 L88,72.5 C88.9033651,72.5 89.5,72.0448352 89.5,71.7113402 L89.5,2.28865979 C89.5,1.95516476 88.9033651,1.5 88,1.5 L47,1.5 Z" id="矩形-copy"></path>
                    <path d="M12,22.5 L34.9765625,22.5" id="路径-2"></path>
                    <path d="M56,23.5 L78.9765625,23.5" id="路径-2-copy-3"></path>
                    <path d="M12,36.5 L34.9765625,36.5" id="路径-2-copy"></path>
                    <path d="M56,37.5 L78.9765625,37.5" id="路径-2-copy-4"></path>
                    <path d="M12,50.5 L34.9765625,50.5" id="路径-2-copy-2"></path>
                </g>
                <ellipse id="椭圆形" fill-opacity="0.4" fill="#D8D8D8" transform="translate(77.000000, 115.500000) scale(1, -1) translate(-77.000000, -115.500000) " cx="77" cy="115.5" rx="22" ry="4.5"></ellipse>
                <circle id="椭圆形" fill-opacity="0.4" fill="#D8D8D8" cx="35.5" cy="4.5" r="4.5"></circle>
                <circle id="椭圆形-copy" fill-opacity="0.4" fill="#D8D8D8" cx="16.5" cy="80.5" r="4.5"></circle>
                <circle id="椭圆形-copy-2" fill-opacity="0.4" fill="#D8D8D8" cx="146.5" cy="71.5" r="4.5"></circle>
                <g id="分组-2" opacity="0.4" transform="translate(126.000000, 1.000000)" fill="#D8D8D8">
                    <ellipse id="椭圆形" cx="8" cy="8.28571429" rx="8" ry="2.57142857"></ellipse>
                    <ellipse id="椭圆形" transform="translate(8.000000, 8.285714) rotate(-270.000000) translate(-8.000000, -8.285714) " cx="8" cy="8.28571429" rx="8" ry="2.57142857"></ellipse>
                </g>
                <g id="分组-2-copy" opacity="0.4" transform="translate(0.000000, 29.000000)" fill="#D8D8D8">
                    <ellipse id="椭圆形" cx="8" cy="8.28571429" rx="8" ry="2.57142857"></ellipse>
                    <ellipse id="椭圆形" transform="translate(8.000000, 8.285714) rotate(-270.000000) translate(-8.000000, -8.285714) " cx="8" cy="8.28571429" rx="8" ry="2.57142857"></ellipse>
                </g>
            </g>
        </g>
    </g>
</svg>