<?xml version="1.0" encoding="UTF-8"?>
<svg width="41px" height="40px" viewBox="0 0 41 40" version="1.1" xmlns="http://www.w3.org/2000/svg" xmlns:xlink="http://www.w3.org/1999/xlink">
    <!-- Generator: Sketch 52.1 (67048) - http://www.bohemiancoding.com/sketch -->
    <title>排行</title>
    <desc>Created with Sketch.</desc>
    <defs>
        <linearGradient x1="50%" y1="0%" x2="50%" y2="100%" id="linearGradient-1">
            <stop stop-color="#EA5454" offset="0%"></stop>
            <stop stop-color="#F76B1C" offset="100%"></stop>
        </linearGradient>
    </defs>
    <g id="Page-1" stroke="none" stroke-width="1" fill="none" fill-rule="evenodd">
        <g id="首页" transform="translate(-35.000000, -233.000000)" fill="url(#linearGradient-1)" fill-rule="nonzero">
            <g id="排行" transform="translate(35.000000, 233.000000)">
                <path d="M29.5725332,39.0925443 L12.4275133,39.0925443 L12.4275133,4.73000434 C12.4275133,2.63750191 14.1025152,1 16.2375177,1 L25.7625288,1 C27.8975313,1 29.5700332,2.63750191 29.5700332,4.73000434 L29.5700332,39.0925443 L29.5725332,39.0925443 Z M14.3325155,37.1900421 L27.665031,37.1900421 L27.665031,4.73000434 C27.665031,3.70500315 26.8275301,2.90500222 25.7625288,2.90500222 L16.2375177,2.90500222 C15.1700165,2.90500222 14.3325155,3.70750315 14.3325155,4.73000434 L14.3325155,37.1900421 Z M4.81000443,39.0925443 C2.71000199,39.0925443 1,37.3850423 1,35.2850399 L1,15.2850166 C1,13.1850142 2.71000199,11.4750122 4.81000443,11.4750122 L14.3325155,11.4750122 L14.3325155,39.0925443 L4.81000443,39.0925443 Z M2.90500215,15.2850166 L2.90500215,35.2850399 C2.90500215,36.3350411 3.76000314,37.1900421 4.81000436,37.1900421 L12.4275132,37.1900421 L12.4275132,13.3800144 L4.81000436,13.3800144 C3.75847189,13.3813917 2.90638105,14.2334841 2.90500215,15.2850166 Z M37.1925421,39.0925443 L27.665031,39.0925443 L27.665031,17.1900188 L37.1925421,17.1900188 C39.2875446,17.1900188 41.0000465,18.9000208 41.0000465,21.0000233 L41.0000465,35.2850399 C41.0000465,37.3850423 39.2875446,39.0925443 37.1925421,39.0925443 Z M37.1925421,37.1900421 C38.2425433,37.1900421 39.0950443,36.3350411 39.0950443,35.2850399 L39.0950443,21.0000233 C39.0950443,19.9488954 38.2436683,19.0963983 37.1925421,19.0950194 L29.5725332,19.0950194 L29.5725332,37.1900421 L37.1925421,37.1900421 Z" id="形状"></path>
                <path d="M28.5725332,38.0925443 L11.4275133,38.0925443 L11.4275133,3.73000434 C11.4275133,1.63750191 13.1025152,0 15.2375177,0 L24.7625288,0 C26.8975313,0 28.5700332,1.63750191 28.5700332,3.73000434 L28.5700332,38.0925443 L28.5725332,38.0925443 Z M13.3325155,36.1900421 L26.665031,36.1900421 L26.665031,3.73000434 C26.665031,2.70500315 25.8275301,1.90500222 24.7625288,1.90500222 L15.2375177,1.90500222 C14.1700165,1.90500222 13.3325155,2.70750315 13.3325155,3.73000434 L13.3325155,36.1900421 Z M3.81000443,38.0925443 C1.71000199,38.0925443 0,36.3850423 0,34.2850399 L0,14.2850166 C0,12.1850142 1.71000199,10.4750122 3.81000443,10.4750122 L13.3325155,10.4750122 L13.3325155,38.0925443 L3.81000443,38.0925443 Z M1.90500215,14.2850166 L1.90500215,34.2850399 C1.90500215,35.3350411 2.76000314,36.1900421 3.81000436,36.1900421 L11.4275132,36.1900421 L11.4275132,12.3800144 L3.81000436,12.3800144 C2.75847189,12.3813917 1.90638105,13.2334841 1.90500215,14.2850166 Z M36.1925421,38.0925443 L26.665031,38.0925443 L26.665031,16.1900188 L36.1925421,16.1900188 C38.2875446,16.1900188 40.0000465,17.9000208 40.0000465,20.0000233 L40.0000465,34.2850399 C40.0000465,36.3850423 38.2875446,38.0925443 36.1925421,38.0925443 Z M36.1925421,36.1900421 C37.2425433,36.1900421 38.0950443,35.3350411 38.0950443,34.2850399 L38.0950443,20.0000233 C38.0950443,18.9488954 37.2436683,18.0963983 36.1925421,18.0950194 L28.5725332,18.0950194 L28.5725332,36.1900421 L36.1925421,36.1900421 Z" id="形状-copy"></path>
            </g>
        </g>
    </g>
</svg>