<?xml version="1.0" encoding="UTF-8"?>
<svg width="22px" height="22px" viewBox="0 0 22 22" version="1.1" xmlns="http://www.w3.org/2000/svg" xmlns:xlink="http://www.w3.org/1999/xlink">
    <!-- Generator: Sketch 52.1 (67048) - http://www.bohemiancoding.com/sketch -->
    <title>system-serchb</title>
    <desc>Created with Sketch.</desc>
    <g id="Page-1" stroke="none" stroke-width="1" fill="none" fill-rule="evenodd">
        <g id="首页" transform="translate(-337.000000, -19.000000)" fill="#444444" fill-rule="nonzero">
            <g id="system-serchb" transform="translate(337.000000, 19.000000)">
                <path d="M16.9566992,15.7938059 L21.6360015,20.4731083 L20.44832,21.6607898 L15.7676785,16.980122 C14.1671051,18.3113074 12.1098663,19.1118567 9.86577062,19.1118567 C4.76378183,19.1118567 0.627824756,14.9740615 0.627824756,9.86984072 C0.627824756,4.76561994 4.76378183,0.627824756 9.86577062,0.627824756 C14.9677332,0.627824756 19.1036902,4.76561994 19.1036902,9.86984072 C19.1036902,12.124046 18.2970226,14.1897663 16.9566992,15.7938059 Z M9.86577062,17.431483 C14.0401179,17.431483 17.424078,14.0460261 17.424078,9.86984072 C17.424078,5.6936553 14.0401179,2.30819846 9.86577062,2.30819846 C5.69142331,2.30819846 2.30746321,5.6936553 2.30746321,9.86984072 C2.30746321,14.0460261 5.69142331,17.431483 9.86577062,17.431483 Z" id="形状"></path>
            </g>
        </g>
    </g>
</svg>