<?xml version="1.0" encoding="UTF-8"?>
<svg width="38px" height="38px" viewBox="0 0 38 38" version="1.1" xmlns="http://www.w3.org/2000/svg" xmlns:xlink="http://www.w3.org/1999/xlink">
    <!-- Generator: Sketch 52.1 (67048) - http://www.bohemiancoding.com/sketch -->
    <title>类目 品类 分类 类别</title>
    <desc>Created with Sketch.</desc>
    <defs>
        <linearGradient x1="50%" y1="0%" x2="50%" y2="100%" id="linearGradient-1">
            <stop stop-color="#EA5454" offset="0%"></stop>
            <stop stop-color="#F76B1C" offset="100%"></stop>
        </linearGradient>
    </defs>
    <g id="Page-1" stroke="none" stroke-width="1" fill="none" fill-rule="evenodd">
        <g id="首页" transform="translate(-170.000000, -235.000000)" fill="url(#linearGradient-1)" fill-rule="nonzero">
            <g id="类目-品类-分类-类别" transform="translate(170.000000, 235.000000)">
                <path d="M11.7802545,20.2774779 L6.11541979,20.2774779 C2.99976356,20.2774779 0.450585077,22.8266507 0.450585077,25.9423127 L0.450585077,31.6071474 C0.450585077,34.7228036 2.99975784,37.2719821 6.11541979,37.2719821 L11.7802545,37.2719821 C14.8959107,37.2719821 17.4450892,34.7228093 17.4450892,31.6071474 L17.4450892,25.9423127 C17.4450892,22.8266564 14.8959165,20.2774779 11.7802545,20.2774779 Z M14.6126719,31.6071474 C14.6126719,33.1649784 13.3380855,34.4395647 11.7802545,34.4395647 L6.11541979,34.4395647 C4.55758881,34.4395647 3.28300244,33.1649784 3.28300244,31.6071474 L3.28300244,25.9423127 C3.28300244,24.3844817 4.55758881,23.1098953 6.11541979,23.1098953 L11.7802545,23.1098953 C13.3380855,23.1098953 14.6126719,24.3844817 14.6126719,25.9423127 L14.6126719,31.6071474 Z M31.607176,0.450585077 L25.9423413,0.450585077 C22.8266851,0.450585077 20.2775066,2.99975784 20.2775066,6.11541979 L20.2775066,11.7802545 C20.2775066,14.8959107 22.8266793,17.4450892 25.9423413,17.4450892 L31.607176,17.4450892 C34.7228322,17.4450892 37.2720107,14.8959165 37.2720107,11.7802545 L37.2720107,6.11541979 C37.2720107,2.99976356 34.722838,0.450585077 31.607176,0.450585077 Z M34.4395934,11.7802545 C34.4395934,13.3380855 33.165007,14.6126719 31.607176,14.6126719 L25.9423413,14.6126719 C24.3845103,14.6126719 23.1099239,13.3380855 23.1099239,11.7802545 L23.1099239,6.11541979 C23.1099239,4.55758881 24.3845103,3.28300244 25.9423413,3.28300244 L31.607176,3.28300244 C33.165007,3.28300244 34.4395934,4.55758881 34.4395934,6.11541979 L34.4395934,11.7802545 Z M31.607176,20.2774779 L25.9423413,20.2774779 C22.8266851,20.2774779 20.2775066,22.8266507 20.2775066,25.9423127 L20.2775066,31.6071474 C20.2775066,34.7228036 22.8266793,37.2719821 25.9423413,37.2719821 L31.607176,37.2719821 C34.7228322,37.2719821 37.2720107,34.7228093 37.2720107,31.6071474 L37.2720107,25.9423127 C37.2720107,22.8266564 34.722838,20.2774779 31.607176,20.2774779 Z M34.4395934,31.6071474 C34.4395934,33.1649784 33.165007,34.4395647 31.607176,34.4395647 L25.9423413,34.4395647 C24.3845103,34.4395647 23.1099239,33.1649784 23.1099239,31.6071474 L23.1099239,25.9423127 C23.1099239,24.3844817 24.3845103,23.1098953 25.9423413,23.1098953 L31.607176,23.1098953 C33.165007,23.1098953 34.4395934,24.3844817 34.4395934,25.9423127 L34.4395934,31.6071474 Z M6.11541979,0.450585077 C2.99976356,0.450585077 0.450585077,2.99975784 0.450585077,6.11541979 L0.450585077,11.7802545 C0.450585077,14.8959107 2.99975784,17.4450892 6.11541979,17.4450892 L11.7802545,17.4450892 C14.8959107,17.4450892 17.4450892,14.8959165 17.4450892,11.7802545 L17.4450892,6.11541979 C17.4450892,2.99976356 14.8959165,0.450585077 11.7802545,0.450585077 L6.11541979,0.450585077 Z M14.6126719,11.7802545 C14.6126719,13.3380855 13.3380855,14.6126719 11.7802545,14.6126719 L6.11541979,14.6126719 C4.55758881,14.6126719 3.28300244,13.3380855 3.28300244,11.7802545 L3.28300244,6.11541979 C3.28300244,4.55758881 4.55758881,3.28300244 6.11541979,3.28300244 L11.7802545,3.28300244 C13.3380855,3.28300244 14.6126719,4.55758881 14.6126719,6.11541979 L14.6126719,11.7802545 Z" id="形状"></path>
            </g>
        </g>
    </g>
</svg>