<?xml version="1.0" encoding="UTF-8"?>
<svg width="15px" height="15px" viewBox="0 0 15 15" version="1.1" xmlns="http://www.w3.org/2000/svg" xmlns:xlink="http://www.w3.org/1999/xlink">
    <!-- Generator: Sketch 52.1 (67048) - http://www.bohemiancoding.com/sketch -->
    <title>形状</title>
    <desc>Created with Sketch.</desc>
    <g id="Page-1" stroke="none" stroke-width="1" fill="none" fill-rule="evenodd">
        <g id="书籍简介-copy" transform="translate(-312.000000, -349.000000)" fill="#000000" fill-rule="nonzero">
            <g id="分组-3" transform="translate(312.000000, 346.000000)">
                <g id="倒序" transform="translate(7.500000, 10.500000) scale(1, -1) translate(-7.500000, -10.500000) translate(0.000000, 3.000000)">
                    <path d="M14.2517695,14.6845244 C14.6649981,14.6845244 15.000017,14.3558107 15,13.9503552 C15,13.5446817 14.6649981,13.2160854 14.2517525,13.2160854 L6.76852919,13.2160854 C6.35519857,13.2160854 6.0202817,13.5447991 6.0202817,13.9503552 C6.0202817,14.3559281 6.35518156,14.6845244 6.76852919,14.6845244 L14.2517695,14.6845244 M11.2583543,5.87385672 C11.6715319,5.87385672 12.0066869,5.545143 12.0066869,5.13957014 C12.0066869,4.73401404 11.6716679,4.40540092 11.2583543,4.40540092 L6.76864826,4.40540092 C6.35541969,4.40540092 6.02026469,4.73411464 6.02026469,5.13957014 C6.02026469,5.54527714 6.35528362,5.87385672 6.76864826,5.87385672 L11.2583543,5.87385672 M9.76174027,1.46843903 C10.1749518,1.46843903 10.5101238,1.13972531 10.5100898,0.734269815 C10.5100898,0.328713715 10.1750709,0 9.76172326,0 L6.76852919,0 C6.35541969,0 6.0202817,0.328713715 6.0202817,0.734269815 C6.0202817,1.13984268 6.35530062,1.46843903 6.76852919,1.46843903 L9.76174027,1.46843903 M12.7550364,10.2792409 C13.1684861,10.2792409 13.503386,9.95040979 13.503386,9.54497106 C13.503386,9.13939819 13.168282,8.81068448 12.7550364,8.81068448 L6.76852919,8.81068448 C6.3550795,8.81068448 6.0202817,9.13948203 6.0202817,9.54497106 C6.0202817,9.95051039 6.35530062,10.2792409 6.76852919,10.2792409 L12.7550364,10.2792409 M4.96096464,14.5975884 C5.00081906,14.5161662 5.02153458,14.426934 5.02156945,14.3365289 L5.02194366,14.3365289 L5.02194366,0.663446742 C5.02194366,0.297024425 4.68316563,1.67864691e-05 4.26517441,1.67864691e-05 C3.84723422,-0.000117348176 3.50835414,0.297024425 3.50835414,0.663446742 L3.50835414,12.7207932 L1.29184742,10.777417 C0.996324534,10.5183024 0.517133166,10.5183024 0.221610276,10.777417 C-0.0739296223,11.0365483 -0.0738105559,11.4566413 0.221610276,11.7157894 C0.221610276,11.7157894 3.69903053,14.7785193 3.73008986,14.8057486 C3.76095769,14.8327604 3.79408504,14.8571534 3.82911898,14.8786674 C3.88599185,14.9139252 3.94722941,14.941825 4.01132458,14.96168 C4.27789731,15.0447093 4.58697677,14.9928495 4.80034382,14.8057317 C4.87071208,14.7440633 4.92410487,14.6731899 4.96096444,14.5975883" id="形状"></path>
                </g>
            </g>
        </g>
    </g>
</svg>